<svg width="88" height="70" viewBox="0 0 88 70" fill="none" xmlns="http://www.w3.org/2000/svg">
<path d="M22.3522 0.918848H65.6478C69.5749 0.918848 72.465 0.919563 74.7485 1.10613C77.0212 1.29182 78.6119 1.65703 79.955 2.34135C82.4108 3.59263 84.4074 5.58922 85.6586 8.04498C86.343 9.38805 86.7082 10.9788 86.8939 13.2515C87.0804 15.535 87.0812 18.4251 87.0812 22.3522V47.6478C87.0812 51.5749 87.0804 54.465 86.8939 56.7485C86.7082 59.0212 86.343 60.6119 85.6586 61.955C84.4074 64.4108 82.4108 66.4074 79.955 67.6586C78.6119 68.343 77.0212 68.7082 74.7485 68.8939C72.465 69.0804 69.5749 69.0812 65.6478 69.0812H22.3522C18.4251 69.0812 15.535 69.0804 13.2515 68.8939C10.9788 68.7082 9.38805 68.343 8.04498 67.6586C5.58922 66.4074 3.59263 64.4108 2.34135 61.955C1.65703 60.6119 1.29182 59.0212 1.10613 56.7485C0.919563 54.465 0.918848 51.5749 0.918848 47.6478V22.3522C0.918848 18.4251 0.919563 15.535 1.10613 13.2515C1.29182 10.9788 1.65703 9.38805 2.34135 8.04498C3.59263 5.58922 5.58922 3.59263 8.04498 2.34135C9.38805 1.65703 10.9788 1.29182 13.2515 1.10613C15.535 0.919563 18.4251 0.918848 22.3522 0.918848Z" fill="#0F0F0F"/>
<path d="M22.3522 0.918848H65.6478C69.5749 0.918848 72.465 0.919563 74.7485 1.10613C77.0212 1.29182 78.6119 1.65703 79.955 2.34135C82.4108 3.59263 84.4074 5.58922 85.6586 8.04498C86.343 9.38805 86.7082 10.9788 86.8939 13.2515C87.0804 15.535 87.0812 18.4251 87.0812 22.3522V47.6478C87.0812 51.5749 87.0804 54.465 86.8939 56.7485C86.7082 59.0212 86.343 60.6119 85.6586 61.955C84.4074 64.4108 82.4108 66.4074 79.955 67.6586C78.6119 68.343 77.0212 68.7082 74.7485 68.8939C72.465 69.0804 69.5749 69.0812 65.6478 69.0812H22.3522C18.4251 69.0812 15.535 69.0804 13.2515 68.8939C10.9788 68.7082 9.38805 68.343 8.04498 67.6586C5.58922 66.4074 3.59263 64.4108 2.34135 61.955C1.65703 60.6119 1.29182 59.0212 1.10613 56.7485C0.919563 54.465 0.918848 51.5749 0.918848 47.6478V22.3522C0.918848 18.4251 0.919563 15.535 1.10613 13.2515C1.29182 10.9788 1.65703 9.38805 2.34135 8.04498C3.59263 5.58922 5.58922 3.59263 8.04498 2.34135C9.38805 1.65703 10.9788 1.29182 13.2515 1.10613C15.535 0.919563 18.4251 0.918848 22.3522 0.918848Z" stroke="#B0E73B" stroke-width="1.8377" stroke-miterlimit="0" stroke-linejoin="bevel"/>
<path d="M62.7171 39.9408V48.4583C62.7171 49.5878 62.2684 50.6711 61.4697 51.4697C60.6711 52.2684 59.5878 52.7171 58.4583 52.7171H28.647C27.5175 52.7171 26.4342 52.2684 25.6355 51.4697C24.8369 50.6711 24.3882 49.5878 24.3882 48.4583V39.9408" stroke="white" stroke-width="2.26" stroke-linecap="round" stroke-linejoin="round"/>
<path d="M32.9058 29.2938L43.5527 39.9407L54.1996 29.2938" stroke="white" stroke-width="2.26" stroke-linecap="round" stroke-linejoin="round"/>
<path d="M43.5527 39.9408V14.3882" stroke="white" stroke-width="2.26" stroke-linecap="round" stroke-linejoin="round"/>
</svg>
