<svg width="217" height="32" viewBox="0 0 217 32" fill="none" xmlns="http://www.w3.org/2000/svg">
<path d="M10.9168 0.190852C11.2603 0.0381723 11.6802 0 12.1382 0C13.9704 0 16.3751 0.992434 17.4439 2.3284C17.8638 2.82462 18.0546 3.51169 18.0546 4.23692C18.0546 5.19119 17.7111 6.25996 17.024 7.36691C16.2606 8.62653 12.2527 11.871 11.4893 11.871C11.2985 11.871 10.4205 11.1076 9.54262 10.1534L7.90129 8.39751L7.02337 9.42811C6.37447 10.1915 5.99277 11.3748 5.99277 12.6344C5.99277 13.665 6.25996 14.772 6.71801 15.7262C7.71044 17.7493 10.5351 21.7572 11.4511 22.4824C12.0237 22.9405 12.4436 23.1313 12.9398 23.1313C13.4742 23.1313 14.0849 22.8641 15.0392 22.2916C15.9553 21.719 16.8714 21.4136 17.7111 21.4136C18.4363 21.4136 19.1234 21.6427 19.6578 22.1007C20.0395 22.4061 20.2304 22.7878 20.2304 23.1313C20.2304 24.8872 16.0698 26.872 14.9247 26.872C14.1231 26.872 12.0619 27.3301 10.2679 27.9408C8.47385 28.5515 6.94703 29.0477 6.90886 29.0477C6.67984 29.0477 5.00033 25.307 4.46595 23.5512C4.12241 22.4443 3.05364 19.925 2.06121 17.902C0.725239 15.1537 0 13.2452 0 11.7565C0 9.77165 1.25963 8.47385 3.93156 6.71801C6.64167 4.92399 10.1152 1.64133 10.1152 0.839751C10.1152 0.648899 10.4969 0.381707 10.9168 0.190852Z" fill="#C478FF"/>
<path d="M28.0938 7.78678C27.8266 7.59593 27.5212 7.51959 27.2159 7.51959C25.6127 7.51959 23.8187 9.80982 23.3606 12.7871C23.3225 13.0543 23.2843 13.3215 23.2843 13.5505C23.2843 14.3521 23.5515 15.1155 24.2004 16.4515C25.4218 18.9326 28.1319 22.4824 29.5061 23.3985C29.926 23.6657 30.1932 23.8184 30.4222 23.8184C30.6512 23.8184 30.9184 23.7039 31.3001 23.4367C32.1017 22.9023 32.5216 21.8717 32.5216 20.5357C32.5216 19.1998 32.1399 17.5584 31.3383 15.7262C30.4222 13.6269 29.3534 8.62653 28.0938 7.78678ZM29.5061 0.954264C30.0786 0.687069 31.0711 0.572559 32.1399 0.572559C33.6667 0.572559 35.3843 0.839751 36.2623 1.33597C37.5982 2.06121 38.209 2.71011 38.209 3.89339C38.209 4.80948 37.8273 6.06911 37.1402 8.0158C36.5676 9.61896 36.3386 10.3824 36.3386 11.6038C36.3386 12.1382 36.3768 12.7108 36.4531 13.5124C36.6058 15.1155 36.7203 17.5584 36.7585 18.8944V19.7723C36.7585 21.2991 36.5676 21.5663 35.537 22.6351C34.0102 24.2001 29.926 27.2537 28.4755 27.8645C27.9029 28.0935 26.7578 28.3225 25.8417 28.3225C23.7805 28.3225 22.7881 27.3682 21.872 24.4673C21.5285 23.3222 20.4215 20.7647 19.4291 18.7417C18.2458 16.2988 17.6351 14.3903 17.6351 12.7871C17.6351 10.306 19.1237 8.62653 22.2155 7.06154C24.9638 5.6874 26.796 4.23692 27.9029 2.59559C28.361 1.90852 29.1244 1.14512 29.5061 0.954264Z" fill="#C478FF"/>
<path d="M64.4151 2.09938C65.5602 1.2978 66.4381 0.839751 66.8198 0.839751C66.8962 0.839751 66.9343 0.839751 66.9725 0.877921C67.2015 1.10695 67.316 1.41231 67.316 1.83218C67.316 2.67194 66.858 3.85522 66.0183 5.22936C63.5753 9.23726 62.8883 10.6496 62.8883 12.2909C62.8883 12.5581 62.8883 12.8253 62.9264 13.0925C63.0409 14.1613 63.499 15.6881 63.957 16.4897C66.2854 20.5739 67.1634 22.3297 67.1634 23.513C67.1634 23.9711 67.0489 24.3146 66.858 24.6963C66.4381 25.4597 62.2012 28.3225 61.476 28.3225C61.1706 28.3225 61.0561 27.6736 61.0561 25.8414V24.8872C61.0561 21.9099 60.6744 20.6502 58.6895 16.795C57.3154 14.1231 57.3154 13.7795 56.8192 11.1458C56.781 10.8786 56.7428 10.6496 56.7428 10.4587C56.7428 9.77165 57.0482 9.27543 57.9643 8.05397C59.5674 5.91643 61.3615 4.23692 64.4151 2.09938ZM44.4901 3.77888L48.7652 0.916094L49.6431 1.87035C50.1393 2.44291 50.3302 2.78645 50.3302 3.359C50.3302 3.6262 50.292 3.93156 50.2157 4.35144C49.9866 5.64923 49.8721 6.90886 49.8721 7.93946C49.8721 9.04641 50.0248 9.9625 50.292 10.4969C50.6355 11.1458 50.8646 11.4511 51.2463 11.4511C51.5898 11.4511 52.086 11.2221 52.9258 10.7641C53.7655 10.306 54.6816 10.077 55.2923 10.077C55.674 10.077 55.9031 10.1534 55.9031 10.3824C55.9031 11.2985 53.193 16.4515 52.0478 17.7111C51.3608 18.4363 50.9409 18.8562 50.4447 18.8562C49.7958 18.8562 48.956 18.1692 47.162 16.6042C45.8642 15.4591 44.8336 14.772 44.4138 14.772C44.2611 14.772 44.2229 14.8483 44.2229 15.001C44.2229 16.2988 47.8109 20.4212 47.8109 23.1313C47.8109 23.8566 47.5819 24.4673 46.933 24.9253C45.6352 25.8414 42.9251 27.2156 42.4289 27.2156C42.1999 27.2156 42.009 26.2995 42.009 25.0398C42.009 22.7114 41.2456 19.9632 40.1768 18.4363C38.4973 16.0698 37.2759 13.1306 37.2759 11.5275C37.2759 8.85556 37.6957 8.35934 44.4901 3.77888Z" fill="#C478FF"/>
<path d="M77.3 8.283C76.2694 7.74861 75.3915 7.51959 74.6663 7.51959C73.483 7.51959 72.6814 8.20666 71.9561 9.61897C71.5744 10.3824 71.3454 11.413 71.3454 12.4054C71.3454 13.2833 71.5363 14.0849 71.8416 14.6575C72.7577 16.337 73.6356 16.795 76.3839 16.795H76.6129C79.8956 16.7568 82.1477 16.1079 82.1477 15.23C82.1477 12.5963 80.1246 9.69531 77.3 8.283ZM72.7959 1.90852C73.7502 0.687069 75.5442 0.267195 77.6054 0.267195C81.6133 0.267195 86.5754 2.02304 87.8351 3.359C88.4076 3.96973 88.713 5.00034 88.713 6.45081C88.713 7.59593 88.5603 9.00824 88.1786 10.7641C86.8808 16.9859 84.8959 19.0852 78.865 20.6121L76.4984 21.2228L76.3839 22.8641C76.3076 23.742 76.1167 24.6963 75.8877 24.9635C75.2388 25.7269 71.6126 27.4828 70.7347 27.4828C70.6965 27.4828 70.6583 27.4446 70.6202 27.4446C70.2766 27.3301 70.0858 26.6048 70.0858 25.1544C70.0858 22.2152 69.6659 21.0319 67.3375 17.1767C65.8107 14.6193 65.0091 12.7108 65.0091 11.0694C65.0091 8.9319 66.3451 7.2524 69.1697 5.11485C70.6583 3.96973 72.2997 2.51925 72.7959 1.90852Z" fill="#C478FF"/>
<path d="M103.486 8.283C103.181 7.86312 102.646 7.36691 102.303 7.21422C102.074 7.09971 101.692 7.06154 101.196 7.06154C99.8978 7.06154 97.9893 7.36691 97.2259 7.78678C96.1571 8.39751 94.9357 10.7641 94.9357 12.2909V12.3291C94.9357 13.9704 96.1571 16.4515 97.3022 17.2149C97.7221 17.5203 98.0275 17.6348 98.4474 17.6348C98.9054 17.6348 99.478 17.4821 100.623 17.1767C101.921 16.795 103.257 16.2988 103.562 15.9934C103.944 15.6499 104.097 14.0849 104.097 12.4436C104.097 10.6877 103.868 8.85556 103.486 8.283ZM100.967 1.22146C102.99 0.610729 104.249 0.114512 105.929 0.114512C106.845 0.114512 107.914 0.267195 109.288 0.687069C111.693 1.41231 113.181 2.59559 113.181 3.77888C113.181 4.61863 109.708 11.9855 107.608 15.6117C107.265 16.1843 107.112 16.6423 107.112 17.1004C107.112 18.131 108.028 19.0089 110.204 20.4212C112.723 22.0244 113.945 23.284 113.945 24.3909C113.945 25.0398 113.563 25.6506 112.761 26.2231C111.578 27.1011 108.715 28.666 108.257 28.666C108.143 28.666 107.799 28.0935 107.494 27.4064C106.616 25.307 104.936 23.6657 102.951 23.0168C102.112 22.7496 101.577 22.5588 101.196 22.5588C100.661 22.5588 100.47 22.9405 100.241 24.0092C100.089 24.6581 99.6306 25.5742 99.2108 26.0323C98.371 26.9484 95.1265 28.6279 94.2486 28.6279C94.2104 28.6279 94.1723 28.5897 94.1341 28.5897C93.9051 28.5134 93.7906 27.7881 93.7906 26.414V25.5361C93.7906 25.1544 93.8287 24.8108 93.8287 24.4673C93.8287 21.948 93.4089 20.9938 91.0423 17.1004C89.5536 14.6575 88.7521 12.9398 88.7521 11.4893C88.7521 9.38994 90.4316 7.78678 94.2104 5.03851C97.4549 2.67194 98.9817 1.79401 100.967 1.22146Z" fill="#C478FF"/>
<path d="M124.927 2.29023C126.53 2.17572 127.79 2.09938 128.744 2.09938C130.08 2.09938 130.729 2.21389 130.844 2.48108C130.882 2.55742 130.882 2.67194 130.882 2.78645C130.882 3.6262 129.851 5.03851 127.523 7.21422L124.927 9.6953H121.797C118.858 9.6953 118.667 9.73348 118.095 10.6114C117.789 11.1076 117.637 11.7183 117.637 12.3291C117.637 13.6269 118.209 14.8865 119.011 14.8865C119.125 14.8865 119.278 14.8865 119.431 14.8102C119.927 14.543 120.499 14.3903 120.996 14.3903C121.797 14.3903 122.484 14.6956 122.675 15.23C122.752 15.459 122.79 15.7644 122.79 16.1079C122.79 17.2912 122.408 18.9707 121.988 19.1234C121.759 19.1998 121.645 19.696 121.645 20.2685C121.645 20.9938 121.835 21.8717 122.141 22.2916C122.446 22.7114 122.752 22.8641 124.24 22.8641C124.927 22.8641 125.843 22.7878 127.141 22.7496C128.134 22.7114 129.088 22.6733 129.928 22.6733C131.874 22.6733 133.287 22.9023 133.287 23.7802C133.287 24.2764 132.867 24.9635 131.874 25.9178L130.462 27.2919L124.507 27.4064C121.225 27.4828 117.637 27.6354 116.568 27.7881C116.072 27.8645 115.69 27.9026 115.385 27.9026C114.927 27.9026 114.698 27.7881 114.698 27.4064C114.698 27.0247 114.927 26.3758 115.27 25.3834C115.537 24.62 115.69 23.9329 115.69 23.2077C115.69 21.719 115.079 20.0395 113.667 17.1767C112.293 14.3903 111.568 12.5581 111.568 11.184C111.568 9.73348 112.369 8.74104 113.934 7.71044C114.774 7.17605 116.263 5.9546 117.369 4.96217C119.431 3.12998 120.958 2.59559 124.927 2.29023Z" fill="#C478FF"/>
<path d="M146.459 25.6887C146.688 25.3452 146.764 25.0398 146.764 24.7345C146.764 22.7496 142.68 21.49 140.085 21.1465C139.474 21.0701 139.054 20.9938 138.825 20.9938C138.596 20.9938 138.52 21.0319 138.52 21.1465C138.52 21.261 138.596 21.4518 138.749 21.719C139.245 22.6733 143.024 25.1544 144.856 25.7651C145.314 25.9178 145.657 25.9941 145.886 25.9941C146.154 25.9941 146.306 25.9178 146.459 25.6887ZM139.855 3.09181C141.153 1.75584 142.566 0.572559 142.909 0.572559C143.673 0.572559 146.65 2.09938 147.719 3.01547C148.749 3.93156 149.245 5.19119 149.245 7.02337C149.245 7.13788 149.207 7.2524 149.207 7.36691C149.131 9.50445 148.291 10.9168 145.581 13.2833L143.749 14.8865L141.268 12.2909C139.894 10.8786 138.672 9.6953 138.52 9.6953C137.871 9.6953 137.298 10.6114 137.298 11.7565C137.298 13.9704 140.733 16.6423 143.596 16.6423C144.703 16.6423 150.81 19.2379 151.956 20.1922C152.604 20.7266 153.024 21.7572 153.024 22.7114C153.024 23.284 152.91 23.8566 152.528 24.3146C151.612 25.4597 147.261 28.5515 144.36 30.0402C142.795 30.8418 141.955 31.2998 141.115 31.2998C140.123 31.2998 139.092 30.6891 136.84 29.3531C134.702 28.0553 133.672 27.2537 133.672 26.3376C133.672 25.6124 134.283 24.7727 135.466 23.5512C136.496 22.4824 137.298 21.4518 137.298 21.1846C137.298 20.9174 136.535 20.0777 135.58 19.3143C131.878 16.3751 130.313 14.3521 130.313 12.3672C130.313 11.7565 130.466 11.1458 130.733 10.4969C131.267 9.35177 131.954 8.74104 134.435 7.32874C136.42 6.18362 138.329 4.69497 139.855 3.09181Z" fill="#C478FF"/>
<path d="M166.215 25.6887C166.444 25.3452 166.521 25.0398 166.521 24.7345C166.521 22.7496 162.436 21.49 159.841 21.1465C159.23 21.0701 158.81 20.9938 158.581 20.9938C158.352 20.9938 158.276 21.0319 158.276 21.1465C158.276 21.261 158.352 21.4518 158.505 21.719C159.001 22.6733 162.78 25.1544 164.612 25.7651C165.07 25.9178 165.414 25.9941 165.643 25.9941C165.91 25.9941 166.062 25.9178 166.215 25.6887ZM159.612 3.09181C160.909 1.75584 162.322 0.572559 162.665 0.572559C163.429 0.572559 166.406 2.09938 167.475 3.01547C168.505 3.93156 169.002 5.19119 169.002 7.02337C169.002 7.13788 168.963 7.2524 168.963 7.36691C168.887 9.50445 168.047 10.9168 165.337 13.2833L163.505 14.8865L161.024 12.2909C159.65 10.8786 158.428 9.6953 158.276 9.6953C157.627 9.6953 157.054 10.6114 157.054 11.7565C157.054 13.9704 160.49 16.6423 163.352 16.6423C164.459 16.6423 170.567 19.2379 171.712 20.1922C172.361 20.7266 172.781 21.7572 172.781 22.7114C172.781 23.284 172.666 23.8566 172.284 24.3146C171.368 25.4597 167.017 28.5515 164.116 30.0402C162.551 30.8418 161.711 31.2998 160.871 31.2998C159.879 31.2998 158.848 30.6891 156.596 29.3531C154.459 28.0553 153.428 27.2537 153.428 26.3376C153.428 25.6124 154.039 24.7727 155.222 23.5512C156.253 22.4824 157.054 21.4518 157.054 21.1846C157.054 20.9174 156.291 20.0777 155.337 19.3143C151.634 16.3751 150.069 14.3521 150.069 12.3672C150.069 11.7565 150.222 11.1458 150.489 10.4969C151.023 9.35177 151.71 8.74104 154.191 7.32874C156.176 6.18362 158.085 4.69497 159.612 3.09181Z" fill="#C478FF"/>
<path d="M176.047 3.05364C177.612 1.87036 179.101 0.916094 179.253 0.916094C179.406 0.916094 179.673 1.22146 179.788 1.64133C179.826 1.71767 179.826 1.87035 179.826 1.98487C179.826 2.90096 179.024 4.6568 177.345 7.48142C176.352 9.19909 176.123 9.84799 176.123 11.9092V12.2527C176.123 14.2376 176.314 14.6575 177.994 17.4057C179.482 19.8487 180.208 21.4518 180.208 22.4061C180.208 22.6733 180.169 22.8641 180.055 23.0168C179.635 23.6275 175.818 26.1086 175.284 26.1086C174.787 26.1086 174.635 25.4979 174.329 22.7114C173.91 18.8944 170.627 15.9934 170.207 12.1382C170.169 11.7947 170.169 11.4893 170.169 11.184C170.169 8.35934 171.696 6.29813 176.047 3.05364Z" fill="#C478FF"/>
<path d="M184.06 3.74071L186.655 1.83218H190.778C193.03 1.83218 195.129 1.94669 195.358 2.09938C195.549 2.21389 195.663 2.40474 195.663 2.63376C195.663 3.32083 194.747 4.50412 192.801 6.56533C190.358 9.12275 190.091 9.3136 188.678 9.3136C185.472 9.3136 184.174 10.1152 184.174 12.1382C184.174 12.4436 184.212 12.8253 184.289 13.207C184.479 14.3903 185.128 15.23 185.663 15.23C185.854 15.23 186.006 15.1537 186.159 14.9628C186.541 14.4666 188.602 13.9704 189.9 13.9704C190.281 13.9704 190.625 14.0086 190.816 14.1231C191.426 14.4284 191.694 15.0392 191.694 15.8789C191.694 16.2988 191.656 16.7568 191.503 17.2912C191.159 18.589 190.968 18.7417 189.594 18.9707L188.067 19.2379L188.335 21.3373C188.411 21.948 188.449 22.5969 188.449 23.0931C188.449 23.5512 188.411 23.9329 188.335 24.0856C188.067 24.7727 183.831 27.2156 182.914 27.2156C182.495 27.2156 182.38 26.9484 182.38 25.4597C182.38 25.1162 182.418 24.6963 182.418 24.2001V22.9786C182.418 21.1083 182.189 20.5739 180.624 17.6729C178.907 14.5048 178.143 12.4818 178.143 10.7641C178.143 10.2679 178.22 9.77165 178.334 9.3136C178.754 7.78678 179.403 7.13788 184.06 3.74071Z" fill="#C478FF"/>
<path d="M198.25 3.43535C199.281 2.67194 200.311 2.02304 200.578 2.02304H200.617C201.266 2.02304 201.418 3.01547 201.418 4.2751C201.418 5.80191 201.151 7.78678 201.151 9.04641C201.151 9.3136 201.189 9.58079 201.227 9.77165C201.456 11.0313 202.831 12.978 203.518 12.978C203.708 12.978 204.739 12.0237 205.808 10.8786C210.197 6.22179 214.167 3.12998 215.808 3.12998C216.152 3.12998 216.343 3.20632 216.343 3.43535C216.343 4.04607 215.121 5.49655 212.526 7.97763C210.388 10.0007 208.327 12.1764 207.945 12.8253C207.487 13.5505 207.258 14.3139 207.258 15.2682C207.258 16.4515 207.602 17.902 208.327 19.8868C208.938 21.5663 209.396 23.2458 209.396 23.6657C209.396 24.4291 206.724 27.2919 204.854 28.5134C204.51 28.7424 204.243 28.8951 204.014 28.8951C203.441 28.8951 203.25 28.0171 203.25 25.7269C203.25 21.0701 202.525 19.696 198.365 16.566C196.723 15.3445 195.196 14.1231 195.006 13.9322C193.441 12.3291 192.601 11.0694 192.601 9.84799C192.601 8.05397 194.395 6.25996 198.25 3.43535Z" fill="#C478FF"/>
</svg>
