<svg width="48" height="48" viewBox="0 0 48 48" fill="none" xmlns="http://www.w3.org/2000/svg">
<path d="M46.6371 22.8812L25.2505 43.0514C22.6306 45.5225 19.0771 46.9107 15.3718 46.9107C11.6666 46.9107 8.11307 45.5225 5.49306 43.0514C2.87303 40.5805 1.40112 37.229 1.40112 33.7345C1.40112 30.2399 2.87303 26.8887 5.49306 24.4176L26.8796 4.24746C28.6263 2.60014 30.9954 1.67468 33.4654 1.67468C35.9357 1.67468 38.3047 2.60014 40.0513 4.24746C41.798 5.89481 42.7794 8.12906 42.7794 10.4587C42.7794 12.7884 41.798 15.0227 40.0513 16.67L18.6415 36.8401C17.7682 37.6638 16.5836 38.1265 15.3486 38.1265C14.1135 38.1265 12.929 37.6638 12.0556 36.8401C11.1823 36.0164 10.6917 34.8995 10.6917 33.7345C10.6917 32.5697 11.1823 31.4525 12.0556 30.6288L31.8131 12.017" stroke="#A3A0A0" stroke-width="1.50787" stroke-linecap="round" stroke-linejoin="round"/>
</svg>
